PathFileType	4	(X/Y/Z)	Kaydara	
DataRate	CameraRate	NumFrames	NumMarkers	Units	OrigDataRate	OrigDataStartFrame	OrigNumFrames	
60.00	60.00	5	74	mm	60.00	360	242	
Frame#	Time	Z_lasi			Z_rasi			Z_rpsi			Z_lpsi			Z_fneck			Z_bneck			Z_fhead			Z_rhead			Z_lhead			Z_rshld			Z_relbtop			Z_relbext			Z_relblow			Z_rwrext			Z_rwrtop			Z_rwrlow			Z_lshld			Z_lelbext			Z_lelblow			Z_lelbtop			Z_lwrext			Z_lwrtop			Z_rtopleg			Z_ltopleg			Z_rkneefr			Z_rkneebk			Z_rkneeis			Z_lkneefr			Z_lknssbk			Z_lkneeis			Z_rankfr			Z_rankis			Z_rankbk			Z_lankfr			Z_lankbk			Z_lankis			A_lasi			A_rasi			A_rpsi			A_lpsi			A_fneck			A_bneck			A_fhead			A_rhead			A_lhead			A_rshld			A_relbtop			A_relbext			A_relblow			A_rwrext			A_rwrtop			A_rwrlow			A_lshld			A_lelbext			A_lelblow			A_lelbtop			A_lwrext			A_lwrtop			A_lwrlow			A_rtopleg			A_ltopleg			A_rkneefr			A_rkneebk			A_rkneeis			A_lkneefr			A_lknssbk			A_lkneeis			A_rankfr			A_rankis			A_rankbk			A_lankfr			A_lankbk			A_lankis			Z_lwrlow			
		X1	Y1	Z1	X2	Y2	Z2	X3	Y3	Z3	X4	Y4	Z4	X5	Y5	Z5	X6	Y6	Z6	X7	Y7	Z7	X8	Y8	Z8	X9	Y9	Z9	X10	Y10	Z10	X11	Y11	Z11	X12	Y12	Z12	X13	Y13	Z13	X14	Y14	Z14	X15	Y15	Z15	X16	Y16	Z16	X17	Y17	Z17	X18	Y18	Z18	X19	Y19	Z19	X20	Y20	Z20	X21	Y21	Z21	X22	Y22	Z22	X23	Y23	Z23	X24	Y24	Z24	X25	Y25	Z25	X26	Y26	Z26	X27	Y27	Z27	X28	Y28	Z28	X29	Y29	Z29	X30	Y30	Z30	X31	Y31	Z31	X32	Y32	Z32	X33	Y33	Z33	X34	Y34	Z34	X35	Y35	Z35	X36	Y36	Z36	X37	Y37	Z37	X38	Y38	Z38	X39	Y39	Z39	X40	Y40	Z40	X41	Y41	Z41	X42	Y42	Z42	X43	Y43	Z43	X44	Y44	Z44	X45	Y45	Z45	X46	Y46	Z46	X47	Y47	Z47	X48	Y48	Z48	X49	Y49	Z49	X50	Y50	Z50	X51	Y51	Z51	X52	Y52	Z52	X53	Y53	Z53	X54	Y54	Z54	X55	Y55	Z55	X56	Y56	Z56	X57	Y57	Z57	X58	Y58	Z58	X59	Y59	Z59	X60	Y60	Z60	X61	Y61	Z61	X62	Y62	Z62	X63	Y63	Z63	X64	Y64	Z64	X65	Y65	Z65	X66	Y66	Z66	X67	Y67	Z67	X68	Y68	Z68	X69	Y69	Z69	X70	Y70	Z70	X71	Y71	Z71	X72	Y72	Z72	X73	Y73	Z73	X74	Y74	Z74	

152	5.983	-166.05206	1090.08812	-283.44009	-296.43530	1086.17149	-120.71425	-465.50671	1129.90807	-208.98071	-312.07453	1129.18694	-405.57343	-259.22476	1448.37463	-163.43086	-333.04558	1514.92950	-244.21906	-277.85233	1658.57285	-53.02137	-397.22023	1633.15033	-168.33668	-260.25513	1648.73428	-221.75518	-427.33620	1424.48929	-66.53071	-326.99909	1191.00296	66.21423	-349.16702	1109.37660	66.42754	-308.70745	1107.75040	15.80893	-153.01599	1123.38821	180.92318	-160.84751	1169.49524	188.33466	-141.14358	1180.83015	151.27500	-188.44454	1472.61230	-363.05012	-178.54177	1160.53276	-503.39046	-212.41974	1142.25288	-441.23474	-123.86906	1161.72653	-450.37346	-106.91017	916.20750	-375.95352	-79.32054	913.06183	-418.11790	-495.16411	929.07333	-184.80680	-180.51939	902.51091	-376.64478	-459.08752	423.99792	-151.28698	-523.48557	457.37526	-205.61142	-404.51683	430.91240	-232.08654	-189.76740	437.65900	-293.52011	-241.67744	455.64053	-388.98945	-279.52307	425.65849	-269.83351	-505.37586	188.15294	-181.13930	-451.56040	180.80730	-218.63586	-529.43016	185.30174	-252.04180	-201.12167	169.55515	-318.92681	-273.41663	168.06870	-355.85560	-262.47013	178.92811	-278.29620	67.78493	1028.68408	615.65697	179.94745	1043.53569	507.50328	301.38353	1051.61316	618.07369	146.37465	1044.08951	709.86221	164.50163	1387.73544	607.42207	266.91757	1411.12808	704.30428	149.87607	1604.15222	574.82143	307.90091	1569.20273	632.86507	181.10384	1559.60709	735.05623	324.12487	1366.75018	525.77690	217.06446	1175.07057	360.05814	226.84732	1114.33731	380.66212	173.11031	1164.29924	397.30358	18.34434	1156.42967	226.16291	8.62362	1135.16502	261.57251	9.18680	1195.64003	237.23429	72.14200	1367.83737	741.95328	31.97767	1066.33614	778.79768	82.43884	1056.78978	775.68977	36.72528	1058.34373	725.46333	3.09593	834.14833	785.23384	-28.22248	837.73697	751.06430	24.81165	827.56256	746.59103	344.27486	877.07329	530.14877	49.98576	874.05022	717.84836	202.20535	407.11258	572.63874	292.23249	445.51682	525.29564	209.49759	409.09973	463.01239	167.63649	434.58523	616.79344	75.20824	468.81786	694.78867	67.54310	410.19188	580.76454	247.85395	167.36948	474.31065	216.56662	159.54544	537.81662	300.74280	152.35553	534.54746	94.51954	188.45980	764.81415	97.40075	222.54017	826.71410	170.35074	205.33386	777.82349	-111.46255	910.88364	-451.41315 
153	6.000	-165.24998	1089.88319	-283.96330	-295.58041	1085.67009	-120.88051	-464.23923	1129.68697	-208.55299	-311.70910	1129.01466	-405.63221	-258.00219	1448.80081	-164.77055	-332.15046	1514.87305	-245.45319	-276.43703	1660.64087	-56.82666	-396.09516	1633.50891	-171.48649	-259.35715	1648.67889	-225.47739	-426.11305	1425.05951	-66.88428	-330.44827	1188.38463	62.49574	-353.15178	1106.86363	62.55359	-312.69854	1105.31654	11.73318	-156.83620	1120.66391	176.65407	-164.86248	1166.30356	184.17181	-145.20442	1178.06473	147.03125	-187.72207	1471.79001	-364.49543	-177.41478	1158.92227	-503.30067	-211.09753	1141.03455	-440.78407	-122.78420	1160.81467	-450.19802	-104.00146	916.33034	-373.70087	-76.73000	913.03268	-415.71655	-494.01783	928.98216	-184.10017	-180.04915	902.45506	-377.03484	-458.01079	423.96908	-150.72620	-522.81414	457.43645	-205.06023	-403.88554	430.81226	-231.75575	-189.58241	437.58919	-293.99170	-241.55622	455.56301	-389.29741	-279.36682	425.75294	-270.12901	-504.91566	188.13011	-181.05429	-451.31821	180.77578	-218.48125	-529.16840	185.54892	-251.81698	-201.13041	169.45032	-319.05643	-273.43752	168.07938	-356.15852	-262.34795	178.96366	-278.49066	69.82918	1029.38515	610.81814	181.09507	1043.72063	501.69594	303.36702	1052.64091	611.46149	149.36421	1045.47783	704.50142	165.83988	1388.63983	599.97082	269.62145	1413.78876	695.90736	151.37329	1605.00732	566.02940	309.82208	1569.94827	622.75738	184.20120	1561.33911	726.21300	323.53657	1369.20517	517.40852	214.45566	1179.98352	349.98596	226.18357	1118.68057	369.22260	171.62241	1167.04384	387.70618	14.88633	1157.97066	219.42837	6.23171	1136.43768	255.44645	4.61147	1196.91277	230.75377	74.63611	1368.97797	735.43976	36.15793	1067.11807	772.10571	86.38992	1057.79327	768.74443	40.74732	1059.40598	718.66837	8.05347	834.83414	777.81960	-23.28702	838.37570	743.70995	29.32209	828.26057	739.02214	346.25137	877.40891	525.14893	51.89393	875.31242	713.43102	203.76644	407.80109	570.73143	294.14869	445.46944	523.56033	211.43209	409.11327	461.41296	167.75524	436.91299	604.54189	78.44881	469.86080	684.37317	66.84209	412.74082	570.65269	248.73384	167.34488	473.41194	217.46469	160.02222	537.04243	301.42313	152.38214	534.03931	99.57480	190.64188	753.86536	104.26410	224.79246	815.78041	175.53259	207.31773	764.51218	-109.26182	909.87587	-448.68801 
154	6.017	-164.42192	1089.80698	-284.38238	-294.52419	1085.48569	-120.96540	-463.48930	1129.74831	-208.17427	-311.24914	1128.88451	-405.69553	-256.91696	1449.44336	-166.52058	-331.23829	1514.92554	-247.21272	-274.90530	1662.70599	-60.88804	-394.95358	1634.07150	-174.62431	-258.42566	1648.75214	-229.34938	-425.48286	1425.70786	-68.02898	-332.66930	1186.25656	59.11898	-357.02557	1105.18761	58.23823	-316.58543	1103.34511	7.70843	-160.10813	1114.07425	172.67447	-168.19292	1159.55429	181.41859	-148.56276	1172.21779	144.76830	-186.74200	1470.92438	-366.31065	-176.21582	1157.19925	-503.05893	-209.71359	1139.59885	-440.51476	-121.43040	1159.77478	-450.06985	-101.28083	916.23695	-371.65634	-74.00255	912.85179	-413.75366	-492.88536	929.01077	-183.43546	-179.41044	902.43790	-377.27837	-457.15839	423.90610	-150.43755	-522.15637	457.55119	-204.52982	-403.34969	430.86555	-231.32839	-189.38375	437.56500	-294.63974	-241.49734	455.57068	-390.02022	-279.06017	425.81459	-270.56051	-504.62364	188.24881	-180.81841	-451.13922	180.81440	-218.28842	-528.93341	185.76221	-251.63452	-201.17897	169.40010	-319.24000	-273.41080	167.97714	-356.26312	-262.31146	179.07927	-278.63668	72.07907	1030.22034	606.22627	182.36467	1043.89732	496.34304	305.49963	1053.58604	605.15789	151.92052	1046.82999	698.73520	166.83254	1389.48059	593.17432	271.59597	1414.18762	687.84584	152.80218	1605.74265	557.61543	311.81946	1570.62622	613.05351	186.91086	1563.48053	717.82806	322.40524	1371.82251	509.18095	212.69438	1184.20753	340.17151	227.57563	1122.62840	357.55810	171.50784	1167.98645	378.82317	11.80650	1154.83780	213.68725	4.52193	1131.81381	249.71754	-0.23696	1192.79922	226.10010	77.04412	1369.83017	729.47563	40.12366	1067.54211	765.71205	90.40539	1058.53928	762.22931	44.42066	1060.06470	712.19284	12.45314	835.27695	770.06119	-19.06614	838.84354	736.36520	34.03697	829.11667	731.46767	348.07461	877.65244	520.63038	53.65359	876.68427	709.28879	205.31746	408.37399	568.83423	296.03252	445.65208	521.33442	212.93306	409.17038	459.62227	168.22056	439.90398	593.25855	80.43049	471.13972	675.47997	66.71556	415.47741	560.96863	249.28745	167.38003	472.78107	217.98843	160.42881	536.48731	301.83661	152.36830	533.40050	104.68820	191.85017	741.99135	110.70757	225.71011	803.96568	181.12690	209.09691	750.82199	-107.13102	908.66440	-445.90111 
155	6.033	-163.58248	1089.96986	-284.63264	-293.10507	1086.13518	-120.48160	-462.50797	1129.70787	-208.22748	-310.58369	1128.69003	-405.79887	-255.98984	1450.21500	-168.29012	-330.34546	1515.00702	-249.48612	-273.44326	1664.54330	-64.90392	-393.88199	1634.77249	-178.01136	-257.55520	1648.89191	-233.38900	-425.20962	1426.74530	-69.92836	-333.75938	1184.51912	56.37673	-360.49099	1104.54147	54.31931	-319.71811	1102.03468	3.92752	-163.23971	1104.60503	169.19003	-170.62210	1149.76135	179.54876	-150.51435	1163.51776	143.36562	-185.77135	1470.13550	-367.86091	-174.76152	1155.33981	-502.62524	-207.96432	1138.22517	-439.68895	-119.92229	1158.57887	-449.81808	-98.34027	915.63835	-369.85851	-71.19519	912.42935	-411.93150	-491.86203	929.13040	-182.87844	-178.75460	902.43866	-377.24506	-456.46164	423.91331	-150.14215	-521.51009	457.78606	-204.07579	-402.81101	430.96050	-230.82304	-189.16361	437.54547	-295.24372	-241.54070	455.56351	-390.38712	-278.61532	425.81772	-270.92375	-504.26239	188.33830	-180.76490	-451.01513	180.90462	-218.09557	-528.72856	185.97412	-251.40974	-201.17491	169.35371	-319.44830	-273.42531	167.92006	-356.40785	-261.65873	178.97337	-279.25339	73.76521	1031.00517	602.19967	183.62543	1043.98529	491.33846	307.44682	1054.44748	599.30580	154.88854	1048.17268	694.75510	167.73174	1390.23499	586.84399	273.28598	1415.71701	679.13864	154.22280	1606.38962	549.55093	313.50519	1570.95505	604.14074	189.33767	1565.36957	709.76067	320.98579	1374.21738	501.79447	211.80855	1187.61864	331.27884	230.87252	1126.56128	346.10596	173.47820	1167.11685	370.66990	9.31004	1145.80299	209.35352	2.91403	1120.90729	245.16075	-4.23030	1182.74239	223.07545	79.41272	1370.41718	724.08607	44.05287	1067.73827	759.61601	94.11572	1058.83720	756.00616	48.18089	1060.62416	706.07178	16.63752	835.42114	762.13623	-14.96220	839.35089	728.36784	37.80208	829.54926	723.22075	349.68754	877.78236	516.43932	55.07424	878.38531	704.73724	206.37457	408.95584	567.06116	297.15260	445.81291	519.39453	214.02739	409.22703	457.85873	168.99754	442.87861	583.67588	82.29802	471.81652	667.12395	67.57728	418.14564	551.69968	249.87812	167.39479	471.98254	218.56230	160.77639	535.88028	302.30450	152.52084	532.73441	109.86632	192.08271	729.13315	116.07273	224.99464	791.60698	185.90113	209.74976	737.77641	-104.98837	907.36343	-443.21930 
156	6.050	-162.62766	1090.20927	-284.59841	-292.89524	1086.92635	-120.71800	-462.18414	1129.94781	-208.63146	-309.68325	1128.35487	-405.99068	-255.41681	1450.94040	-170.48801	-329.39762	1515.21439	-252.16679	-271.40150	1666.08658	-69.38163	-392.79377	1635.74127	-181.35122	-256.68856	1649.13696	-237.40917	-425.39845	1427.75803	-72.46374	-333.33817	1183.27248	54.16392	-363.02189	1105.06683	50.99383	-322.14146	1101.63155	0.60764	-166.17023	1093.36678	166.45227	-171.60473	1138.54248	177.97731	-151.07985	1152.43484	142.30050	-184.52682	1469.27383	-369.67094	-173.13559	1153.56857	-501.91772	-206.06546	1136.62811	-438.62762	-118.00300	1157.39342	-449.41051	-95.41864	915.09018	-367.77119	-68.17861	911.85417	-410.21454	-490.82546	929.32343	-182.53899	-177.88124	902.48238	-377.03667	-455.99506	424.03221	-149.72130	-521.07910	458.04024	-203.64763	-402.30431	431.15898	-230.28730	-188.88735	437.51396	-295.69426	-241.45748	455.57182	-390.71777	-278.30296	425.84450	-271.08582	-504.10152	188.54582	-180.63324	-450.79559	181.11265	-217.89454	-528.59638	186.19541	-251.21468	-201.02274	169.33634	-319.80331	-273.44614	167.93642	-356.55518	-261.49443	179.00745	-279.40126	75.79447	1031.67854	598.29800	184.90740	1044.10233	486.72367	309.20063	1055.19440	593.87669	157.42957	1049.77951	689.44496	168.31842	1390.78125	581.02180	273.56649	1417.45392	671.85303	155.46655	1607.06741	541.87157	314.93948	1571.01349	595.97237	191.17790	1567.22733	702.25044	320.15175	1375.93033	494.94461	210.72321	1190.19920	323.98540	234.52734	1130.43900	335.56286	175.89664	1164.74319	364.29909	7.69555	1131.24054	206.18990	1.89792	1105.06149	241.98271	-7.27685	1167.34818	220.84335	81.76887	1370.85251	719.13643	47.48936	1067.86743	753.83423	97.71159	1059.05724	750.17586	51.75097	1061.20560	700.26680	20.08763	835.52383	754.05960	-11.62412	839.80034	720.59082	41.52986	829.92920	714.95659	351.08761	877.98767	512.28973	56.18115	879.93347	700.33470	207.28167	409.68113	565.32619	298.00480	446.00224	517.46941	214.84613	409.25983	456.09257	170.62912	445.70465	575.75447	83.59117	472.54074	659.51019	69.25365	420.66296	542.98443	250.28393	167.43032	471.29536	218.94371	161.18561	535.03307	302.69178	152.79255	532.04727	114.66234	191.53200	715.66536	120.86120	223.03192	778.63518	190.66998	209.86137	724.49501	-102.84644	905.98671	-440.34290 
